<svg id="Layer_1" data-name="Layer 1" xmlns="http://www.w3.org/2000/svg" viewBox="0 0 150.52 120.5"><defs><style>.cls-1{fill:#231f20;}</style></defs><path class="cls-1" d="M698.7,1336.05a4.57,4.57,0,0,0-.51-.66c-.2-.21-.37.2-.55.28a1,1,0,0,1-.35,0c-.25,0-.44.3-.61.71a13,13,0,0,0-.53,1.53,22.5,22.5,0,0,1-.85,2.76c-.54,1.24-.9,2.9-1.47,4.09a4.8,4.8,0,0,0-.12.48c-.37,1.11-.72,2.27-1.13,3.31-.48,1.25-1,2.38-1.52,3.57a4,4,0,0,1-.68,1.09c-.46.52-.89.44-1.3-.34a17.5,17.5,0,0,1-1.21-2.67,3.67,3.67,0,0,0-.33-.81,7.24,7.24,0,0,1-.87-1.91,18.53,18.53,0,0,0-1.38-3c-.22-.39-.43-.81-.65-1.21a23,23,0,0,0-1.75-2.79c-.58-.77-1.21-1.18-1.8-1.88l-1.27-.24a2.31,2.31,0,0,1-.46,0c-.52-.2-1,.15-1.48.45a5.8,5.8,0,0,0-1.93,1.86c-.29.47-.61.84-.91,1.26a2.17,2.17,0,0,0-.3.41,24.52,24.52,0,0,1-1.65,2.67,9.77,9.77,0,0,1-1.76,2.14c-.32.29-.65.66-1,.64a3.3,3.3,0,0,1-1.39-.19,4.69,4.69,0,0,1-1.21-.88c-.39-.42-.83-.41-1.2-1-.06-.1-.15-.07-.22-.11-.57-.26-1-1-1.28-2.26a8,8,0,0,0-1.51-3.46,1.26,1.26,0,0,0-.65-.53c-.3-.08-.62,0-.9-.43-.1-.15-.22-.16-.33,0a.7.7,0,0,1-.68.25c-.47,0-.89.62-1.35.61a11,11,0,0,1-1.41,1.28,3,3,0,0,1-1,.79c-.34.56-.77.15-1.11.65l-1,.13c-.11,0-.25,0-.34.07-.37.47-.76.3-1.14.28-.58,0-1.16-.13-1.74-.14s-1.31-.38-2,.23c-.1.1-.23,0-.34,0l-.93,0a.57.57,0,0,0-.45.11,1.43,1.43,0,0,1-.68.35c-.22.06-.45.38-.67.37-.4,0-.74.49-1.13.56s-.81.55-1.24.55c-.27.45-.61.24-.89.49a1.46,1.46,0,0,1-1,.39.27.27,0,0,0-.23.11c-.25.32-.52.25-.79.38a8.68,8.68,0,0,1-.9.48,5.51,5.51,0,0,0-2,1.82c-.31.39-.64.71-1,1.07a.27.27,0,0,1-.45,0c-.74-.82-1.51-1.44-2.26-2.19s-1.25-1.47-1.89-2.09a6,6,0,0,1-.54-.48c-.49-.58-.94-1.3-1.45-1.79a14.52,14.52,0,0,1-1.43-1.92l-1.6-2.31c-.53-.77-1.11-1.3-1.66-2s-1.22-1.16-1.81-1.86c-.43,0-.79-.74-1.22-.81-.73-.11-1.47-.16-2.2-.25-.24,0-.45.17-.66.41l-3.17,3.51a3.72,3.72,0,0,1-.75.74,3.63,3.63,0,0,0-.87.81c-1.15,1.31-2.32,2.53-3.45,4a35,35,0,0,1-2.42,2.77,9.44,9.44,0,0,1-2,2.06c-.11.06-.2.27-.31.41s-.26.45-.4.52c-.54.24-1,1-1.53,1.3a10.22,10.22,0,0,0-1.28,1.33c-.42.43-.87.73-1.29,1.2a6.88,6.88,0,0,1-1.86,1.52.83.83,0,0,1-.9.36,2.53,2.53,0,0,0-.46-.06c-.46,0-.85-.44-1.15-1.21-.54-1.39-1.17-2.5-1.68-4a39.85,39.85,0,0,0-2.08-4.58,8,8,0,0,0-.68-1.13,12.66,12.66,0,0,0-2-2.29,1.87,1.87,0,0,0-1.23-.66c-.31,0-.63-.17-.92,0s-.61.26-.9.42a4.08,4.08,0,0,0-.75.75,17.71,17.71,0,0,0-2.24,3c-.32.53-.66,1-1,1.48-.32,0-.59.46-.89.61a5.19,5.19,0,0,0-1,.7.79.79,0,0,1-.56.26c-.51-.07-1,.63-1.47.6a11.59,11.59,0,0,0-2.29,2c-.21.26-.42.47-.63.71-.49.56-1,.31-1.48.09a.74.74,0,0,1-.2-.3,13.86,13.86,0,0,0-1.57-2.42.79.79,0,0,0-.55-.39,3.83,3.83,0,0,0-.58-.07,1.61,1.61,0,0,0-.69,0,3.13,3.13,0,0,0-.78.54,3.17,3.17,0,0,0-1,1.46,12.92,12.92,0,0,0-.45,1.33,9.51,9.51,0,0,1-1,2.41.06.06,0,0,1-.1,0,8.06,8.06,0,0,1-.45-1.31c-.35-1.74-.86-3.21-1.25-4.88a7.7,7.7,0,0,0-.53-1.52,13.06,13.06,0,0,0-.94-1.68,1.78,1.78,0,0,0-.75-.67,3.7,3.7,0,0,0-1-.12c-.39.49-.83.36-1.23.68s-.82.57-1.22.87a4,4,0,0,1-1.22.8,8,8,0,0,1-1.38-.07c-.37,0-.66-.59-1-.68a1.39,1.39,0,0,1-.65-.58,13.65,13.65,0,0,1-1-1.54,30.56,30.56,0,0,1-1.63-3.24c-.52-.81-1-1.88-1.5-2.7a30.65,30.65,0,0,0-2-2.83c-.51-.66-1.05-1.21-1.64-1.22a1,1,0,0,1-.79-.41c-.49-.57-.9-.22-1.22.86,0,.07,0,.17-.06.31a5.93,5.93,0,0,0,.28.87c.33.65.68,1.27,1,1.86a3.4,3.4,0,0,0,.51.63c.54.51,1,1.25,1.58,1.78a8.38,8.38,0,0,1,.85,1.47c.71,1.18,1.33,2.62,2,4a11.36,11.36,0,0,0,1,2.26,31.11,31.11,0,0,0,1.79,2.64c.28.42.61.32.88.67a1.19,1.19,0,0,0,.89.52l1.62.18c.15,0,.33.09.46-.06.29-.34.6-.31.9-.44a5.68,5.68,0,0,0,.88-.65l1.54-1.14c.2-.14.38-.11.56.14a3,3,0,0,1,.49.75,21.41,21.41,0,0,1,1.11,3.34c.27,1.27.58,2.49.88,3.73a6,6,0,0,0,1.57,2.85s.07,0,.11.05c.55.19,1.08,0,1.54-.8.16-.29.33-.5.49-.77a7,7,0,0,0,.92-2.18,9.93,9.93,0,0,1,.62-1.71c.18-.45.4-.54.64-.51a.83.83,0,0,1,.66.45,11.61,11.61,0,0,1,.66,1.17,6.63,6.63,0,0,0,1.35,1.59c.61.09,1.23.49,1.83-.23a5.33,5.33,0,0,0,1.74-1.46c.24-.29.51-.46.74-.79s.6-.35.88-.69.45-.2.68-.21c.08,0,.16,0,.23,0a1.67,1.67,0,0,1,.9-.48,3.1,3.1,0,0,0,.78-.5,12.59,12.59,0,0,0,1.32-1,9.9,9.9,0,0,0,1.78-2c.53-.78,1-1.61,1.57-2.42.41-.62.84-1,1.33-.81s.77,0,1.12.55a7.17,7.17,0,0,1,1.64,2,13,13,0,0,1,1.44,2.89,3.62,3.62,0,0,0,.34.78,6.48,6.48,0,0,1,.69,1.54l1.11,3c.16.43.34.8.51,1.17a13.94,13.94,0,0,0,1.88,2.85c.25.32.52.37.78.07s.8-.66,1.19-1a9.82,9.82,0,0,1,1.31-1.09,6.61,6.61,0,0,0,1.19-1.09,7.18,7.18,0,0,1,1.06-1.12,6.67,6.67,0,0,0,1.08-1c.39-.4.8-.72,1.19-1.09a13.89,13.89,0,0,1,1.94-1.85c1.09-1.21,2.19-2.4,3.27-3.63a7.5,7.5,0,0,0,.92-1.25,1.75,1.75,0,0,1,.63-.68,2.27,2.27,0,0,0,.63-.67,22.32,22.32,0,0,1,2.2-2.53c.35-.11.66-.52,1-.89a22.72,22.72,0,0,1,2.57-2.54,26.59,26.59,0,0,1,2.31-1.69.31.31,0,0,1,.35.06c.14.1.28.37.42.43.7.25,1.3,1.13,1.95,1.71s.94,1.28,1.45,1.78a14.5,14.5,0,0,1,1.42,1.92c.24.33.46.72.7,1a27,27,0,0,0,2.37,3,4.9,4.9,0,0,1,.81,1.09c.26.44.57.54.85.87s.7.77,1.05,1.18c.66.76,1.32,1.56,2,2.22a10.48,10.48,0,0,1,1.08,1c.48.62,1,.74,1.44.21.07-.07.15-.06.23-.09a3.55,3.55,0,0,0,1.85-2.14,3.81,3.81,0,0,1,2-2.11c.55.16,1-.61,1.58-.59.25-.35.53-.24.79-.4s.58-.53.9-.46c.35-.39.74-.4,1.12-.58.3-.57.69-.15,1-.55s.69-.2,1-.25c.08,0,.17,0,.23,0,.44-.58.91-.33,1.37-.32s.85.07,1.27.09a.55.55,0,0,0,.46-.09.89.89,0,0,1,.79-.24q.81.08,1.62.12c.2,0,.41.08.57-.1a1.06,1.06,0,0,1,.92-.28,4,4,0,0,1,.69,0c.24,0,.44-.45.67-.41.44.06.81-.55,1.23-.65a19.38,19.38,0,0,1,2.74-2.21c.28-.23.51-.14.77.2a6.34,6.34,0,0,1,.77,1.71,5.1,5.1,0,0,1,.25,1.28c.15,1.64.66,2.32,1.24,2.7a1.28,1.28,0,0,0,.8.15c.33,0,.57.65.89.65a.72.72,0,0,1,.34.09.68.68,0,0,1,.33.25,1,1,0,0,0,.66.44.75.75,0,0,1,.45.26.94.94,0,0,0,.78.42c.73.06,1.46.35,2.18-.22.25-.2.54.06.8-.24s.6-.31.88-.67.39-.17.54-.43a10.44,10.44,0,0,1,1.23-1.58c.38-.5,1.8-2.68,2.17-3.31s.7-1.18,1.06-1.72.81-.59,1.2-1.06c.27,0,.53,0,.8-.06.6,0,1.14.32,1.64,1.16.36.58.76,1,1.11,1.57a16.52,16.52,0,0,0,1.15,1.92,1.9,1.9,0,0,1,.18.35c.25.61.51,1.16.79,1.69a19.88,19.88,0,0,1,.82,2,7.77,7.77,0,0,0,.5,1.2,7.68,7.68,0,0,1,.77,1.75,8.12,8.12,0,0,0,1.09,2.11l.72,1,1.31,1a2.64,2.64,0,0,0,.46-.13c.15-.06.3-.25.44-.24.29,0,.54-.21.77-.53a23.79,23.79,0,0,0,2.2-3.7,16.46,16.46,0,0,0,1.36-3.55,4.45,4.45,0,0,1,.24-.62,10,10,0,0,0,.68-2c.53-1.27.89-2.92,1.47-4.08a2.76,2.76,0,0,0,.25-.62,17.61,17.61,0,0,1,1.09-3c.22-.55.44-1.09.65-1.67A4,4,0,0,0,698.7,1336.05Z" transform="translate(-548.48 -1332.8)"></path><path class="cls-1" d="M698.7,1382.05a4.57,4.57,0,0,0-.51-.66c-.2-.21-.37.2-.55.28a1,1,0,0,1-.35,0c-.25,0-.44.3-.61.71a13,13,0,0,0-.53,1.53,22.5,22.5,0,0,1-.85,2.76c-.54,1.24-.9,2.9-1.47,4.09a4.8,4.8,0,0,0-.12.48c-.37,1.11-.72,2.27-1.13,3.31-.48,1.25-1,2.38-1.52,3.57a4,4,0,0,1-.68,1.09c-.46.52-.89.44-1.3-.34a17.5,17.5,0,0,1-1.21-2.67,3.67,3.67,0,0,0-.33-.81,7.24,7.24,0,0,1-.87-1.91,18.53,18.53,0,0,0-1.38-3c-.22-.39-.43-.81-.65-1.21a23,23,0,0,0-1.75-2.79c-.58-.77-1.21-1.18-1.8-1.88l-1.27-.24a2.31,2.31,0,0,1-.46,0c-.52-.2-1,.15-1.48.45a5.8,5.8,0,0,0-1.93,1.86c-.29.47-.61.84-.91,1.26a2.17,2.17,0,0,0-.3.41,24.52,24.52,0,0,1-1.65,2.67,9.77,9.77,0,0,1-1.76,2.14c-.32.29-.65.66-1,.64a3.3,3.3,0,0,1-1.39-.19,4.69,4.69,0,0,1-1.21-.88c-.39-.42-.83-.41-1.2-1-.06-.1-.15-.07-.22-.11-.57-.26-1-1-1.28-2.26a8,8,0,0,0-1.51-3.46,1.26,1.26,0,0,0-.65-.53c-.3-.08-.62,0-.9-.43-.1-.15-.22-.16-.33,0a.7.7,0,0,1-.68.25c-.47,0-.89.62-1.35.61a11,11,0,0,1-1.41,1.28,3,3,0,0,1-1,.79c-.34.56-.77.15-1.11.65l-1,.13c-.11,0-.25,0-.34.07-.37.47-.76.3-1.14.28-.58,0-1.16-.13-1.74-.14s-1.31-.38-2,.23c-.1.1-.23,0-.34,0l-.93,0a.57.57,0,0,0-.45.11,1.43,1.43,0,0,1-.68.35c-.22.06-.45.38-.67.37-.4,0-.74.49-1.13.56s-.81.55-1.24.55c-.27.45-.61.24-.89.49a1.46,1.46,0,0,1-1,.39.27.27,0,0,0-.23.11c-.25.32-.52.25-.79.38a8.68,8.68,0,0,1-.9.48,5.51,5.51,0,0,0-2,1.82c-.31.39-.64.71-1,1.07a.27.27,0,0,1-.45,0c-.74-.82-1.51-1.44-2.26-2.19s-1.25-1.47-1.89-2.09a6,6,0,0,1-.54-.48c-.49-.58-.94-1.3-1.45-1.79a14.52,14.52,0,0,1-1.43-1.92l-1.6-2.31c-.53-.77-1.11-1.3-1.66-2s-1.22-1.16-1.81-1.86c-.43,0-.79-.74-1.22-.81-.73-.11-1.47-.16-2.2-.25-.24,0-.45.17-.66.41l-3.17,3.51a3.72,3.72,0,0,1-.75.74,3.63,3.63,0,0,0-.87.81c-1.15,1.31-2.32,2.53-3.45,4a35,35,0,0,1-2.42,2.77,9.44,9.44,0,0,1-2,2.06c-.11.06-.2.27-.31.41s-.26.45-.4.52c-.54.24-1,1-1.53,1.3a10.22,10.22,0,0,0-1.28,1.33c-.42.43-.87.73-1.29,1.2a6.88,6.88,0,0,1-1.86,1.52.83.83,0,0,1-.9.36,2.53,2.53,0,0,0-.46-.06c-.46,0-.85-.44-1.15-1.21-.54-1.39-1.17-2.5-1.68-4a39.85,39.85,0,0,0-2.08-4.58,8,8,0,0,0-.68-1.13,12.66,12.66,0,0,0-2-2.29,1.87,1.87,0,0,0-1.23-.66c-.31,0-.63-.17-.92,0s-.61.26-.9.42a4.08,4.08,0,0,0-.75.75,17.71,17.71,0,0,0-2.24,3c-.32.53-.66,1-1,1.48-.32,0-.59.46-.89.61a5.19,5.19,0,0,0-1,.7.79.79,0,0,1-.56.26c-.51-.07-1,.63-1.47.6a11.59,11.59,0,0,0-2.29,2c-.21.26-.42.47-.63.71-.49.56-1,.31-1.48.09a.74.74,0,0,1-.2-.3,13.86,13.86,0,0,0-1.57-2.42.79.79,0,0,0-.55-.39,3.83,3.83,0,0,0-.58-.07,1.61,1.61,0,0,0-.69,0,3.13,3.13,0,0,0-.78.54,3.17,3.17,0,0,0-1,1.46,12.92,12.92,0,0,0-.45,1.33,9.51,9.51,0,0,1-1,2.41.06.06,0,0,1-.1,0,8.06,8.06,0,0,1-.45-1.31c-.35-1.74-.86-3.21-1.25-4.88a7.7,7.7,0,0,0-.53-1.52,13.06,13.06,0,0,0-.94-1.68,1.78,1.78,0,0,0-.75-.67,3.7,3.7,0,0,0-1-.12c-.39.49-.83.36-1.23.68s-.82.57-1.22.87a4,4,0,0,1-1.22.8,8,8,0,0,1-1.38-.07c-.37,0-.66-.59-1-.68a1.39,1.39,0,0,1-.65-.58,13.65,13.65,0,0,1-1-1.54,30.56,30.56,0,0,1-1.63-3.24c-.52-.81-1-1.88-1.5-2.7a30.65,30.65,0,0,0-2-2.83c-.51-.66-1.05-1.21-1.64-1.22a1,1,0,0,1-.79-.41c-.49-.57-.9-.22-1.22.86,0,.07,0,.17-.06.31a5.93,5.93,0,0,0,.28.87c.33.65.68,1.27,1,1.86a3.4,3.4,0,0,0,.51.63c.54.51,1,1.25,1.58,1.78a8.38,8.38,0,0,1,.85,1.47c.71,1.18,1.33,2.62,2,4a11.36,11.36,0,0,0,1,2.26,31.11,31.11,0,0,0,1.79,2.64c.28.42.61.32.88.67a1.19,1.19,0,0,0,.89.52l1.62.18c.15,0,.33.09.46-.06.29-.34.6-.31.9-.44a5.68,5.68,0,0,0,.88-.65l1.54-1.14c.2-.14.38-.11.56.14a3,3,0,0,1,.49.75,21.41,21.41,0,0,1,1.11,3.34c.27,1.27.58,2.49.88,3.73a6,6,0,0,0,1.57,2.85s.07,0,.11.05c.55.19,1.08,0,1.54-.8.16-.29.33-.5.49-.77a7,7,0,0,0,.92-2.18,9.93,9.93,0,0,1,.62-1.71c.18-.45.4-.54.64-.51a.83.83,0,0,1,.66.45,11.61,11.61,0,0,1,.66,1.17,6.63,6.63,0,0,0,1.35,1.59c.61.09,1.23.49,1.83-.23a5.33,5.33,0,0,0,1.74-1.46c.24-.29.51-.46.74-.79s.6-.35.88-.69.45-.2.68-.21c.08,0,.16,0,.23,0a1.67,1.67,0,0,1,.9-.48,3.1,3.1,0,0,0,.78-.5,12.59,12.59,0,0,0,1.32-1,9.9,9.9,0,0,0,1.78-2c.53-.78,1-1.61,1.57-2.42.41-.62.84-1,1.33-.81s.77,0,1.12.55a7.17,7.17,0,0,1,1.64,2,13,13,0,0,1,1.44,2.89,3.62,3.62,0,0,0,.34.78,6.48,6.48,0,0,1,.69,1.54l1.11,3c.16.43.34.8.51,1.17a13.94,13.94,0,0,0,1.88,2.85c.25.32.52.37.78.07s.8-.66,1.19-1a9.82,9.82,0,0,1,1.31-1.09,6.61,6.61,0,0,0,1.19-1.09,7.18,7.18,0,0,1,1.06-1.12,6.67,6.67,0,0,0,1.08-1c.39-.4.8-.72,1.19-1.09a13.89,13.89,0,0,1,1.94-1.85c1.09-1.21,2.19-2.4,3.27-3.63a7.5,7.5,0,0,0,.92-1.25,1.75,1.75,0,0,1,.63-.68,2.27,2.27,0,0,0,.63-.67,22.32,22.32,0,0,1,2.2-2.53c.35-.11.66-.52,1-.89a22.72,22.72,0,0,1,2.57-2.54,26.59,26.59,0,0,1,2.31-1.69.31.31,0,0,1,.35.06c.14.1.28.37.42.43.7.25,1.3,1.13,1.95,1.71s.94,1.28,1.45,1.78a14.5,14.5,0,0,1,1.42,1.92c.24.33.46.72.7,1a27,27,0,0,0,2.37,3,4.9,4.9,0,0,1,.81,1.09c.26.44.57.54.85.87s.7.77,1.05,1.18c.66.76,1.32,1.56,2,2.22a10.48,10.48,0,0,1,1.08,1c.48.62,1,.74,1.44.21.07-.07.15-.06.23-.09a3.55,3.55,0,0,0,1.85-2.14,3.81,3.81,0,0,1,2-2.11c.55.16,1-.61,1.58-.59.25-.35.53-.24.79-.4s.58-.53.9-.46c.35-.39.74-.4,1.12-.58.3-.57.69-.15,1-.55s.69-.2,1-.25c.08,0,.17,0,.23,0,.44-.58.91-.33,1.37-.32s.85.07,1.27.09a.55.55,0,0,0,.46-.09.89.89,0,0,1,.79-.24q.81.08,1.62.12c.2,0,.41.08.57-.1a1.06,1.06,0,0,1,.92-.28,4,4,0,0,1,.69,0c.24,0,.44-.45.67-.41.44.06.81-.55,1.23-.65a19.38,19.38,0,0,1,2.74-2.21c.28-.23.51-.14.77.2a6.34,6.34,0,0,1,.77,1.71,5.1,5.1,0,0,1,.25,1.28c.15,1.64.66,2.32,1.24,2.7a1.28,1.28,0,0,0,.8.15c.33,0,.57.65.89.65a.72.72,0,0,1,.34.09.68.68,0,0,1,.33.25,1,1,0,0,0,.66.44.75.75,0,0,1,.45.26.94.94,0,0,0,.78.42c.73.06,1.46.35,2.18-.22.25-.2.54.06.8-.24s.6-.31.88-.67.39-.17.54-.43a10.44,10.44,0,0,1,1.23-1.58c.38-.5,1.8-2.68,2.17-3.31s.7-1.18,1.06-1.72.81-.59,1.2-1.06c.27,0,.53,0,.8-.06.6,0,1.14.32,1.64,1.16.36.58.76,1,1.11,1.57a16.52,16.52,0,0,0,1.15,1.92,1.9,1.9,0,0,1,.18.35c.25.61.51,1.16.79,1.69a19.88,19.88,0,0,1,.82,2,7.77,7.77,0,0,0,.5,1.2,7.68,7.68,0,0,1,.77,1.75,8.12,8.12,0,0,0,1.09,2.11l.72,1,1.31,1a2.64,2.64,0,0,0,.46-.13c.15-.06.3-.25.44-.24.29,0,.54-.21.77-.53a23.79,23.79,0,0,0,2.2-3.7,16.46,16.46,0,0,0,1.36-3.55,4.45,4.45,0,0,1,.24-.62,10,10,0,0,0,.68-2c.53-1.27.89-2.92,1.47-4.08a2.76,2.76,0,0,0,.25-.62,17.61,17.61,0,0,1,1.09-3c.22-.55.44-1.09.65-1.67A4,4,0,0,0,698.7,1382.05Z" transform="translate(-548.48 -1332.8)"></path><path class="cls-1" d="M698.7,1428.05a4.57,4.57,0,0,0-.51-.66c-.2-.21-.37.2-.55.28a1,1,0,0,1-.35,0c-.25,0-.44.3-.61.71a13,13,0,0,0-.53,1.53,22.5,22.5,0,0,1-.85,2.76c-.54,1.24-.9,2.9-1.47,4.09a4.8,4.8,0,0,0-.12.48c-.37,1.11-.72,2.27-1.13,3.31-.48,1.25-1,2.38-1.52,3.57a4,4,0,0,1-.68,1.09c-.46.52-.89.44-1.3-.34a17.5,17.5,0,0,1-1.21-2.67,3.67,3.67,0,0,0-.33-.81,7.24,7.24,0,0,1-.87-1.91,18.53,18.53,0,0,0-1.38-3c-.22-.39-.43-.81-.65-1.21a23,23,0,0,0-1.75-2.79c-.58-.77-1.21-1.18-1.8-1.88l-1.27-.24a2.31,2.31,0,0,1-.46,0c-.52-.2-1,.15-1.48.45a5.8,5.8,0,0,0-1.93,1.86c-.29.47-.61.84-.91,1.26a2.17,2.17,0,0,0-.3.41,24.52,24.52,0,0,1-1.65,2.67,9.77,9.77,0,0,1-1.76,2.14c-.32.29-.65.66-1,.64a3.3,3.3,0,0,1-1.39-.19,4.69,4.69,0,0,1-1.21-.88c-.39-.42-.83-.41-1.2-1-.06-.1-.15-.07-.22-.11-.57-.26-1-1-1.28-2.26a8,8,0,0,0-1.51-3.46,1.26,1.26,0,0,0-.65-.53c-.3-.08-.62,0-.9-.43-.1-.15-.22-.16-.33,0a.7.7,0,0,1-.68.25c-.47,0-.89.62-1.35.61a11,11,0,0,1-1.41,1.28,3,3,0,0,1-1,.79c-.34.56-.77.15-1.11.65l-1,.13c-.11,0-.25,0-.34.07-.37.47-.76.3-1.14.28-.58,0-1.16-.13-1.74-.14s-1.31-.38-2,.23c-.1.1-.23,0-.34,0l-.93,0a.57.57,0,0,0-.45.11,1.43,1.43,0,0,1-.68.35c-.22.06-.45.38-.67.37-.4,0-.74.49-1.13.56s-.81.55-1.24.55c-.27.45-.61.24-.89.49a1.46,1.46,0,0,1-1,.39.27.27,0,0,0-.23.11c-.25.32-.52.25-.79.38a8.68,8.68,0,0,1-.9.48,5.51,5.51,0,0,0-2,1.82c-.31.39-.64.71-1,1.07a.27.27,0,0,1-.45,0c-.74-.82-1.51-1.44-2.26-2.19s-1.25-1.47-1.89-2.09a6,6,0,0,1-.54-.48c-.49-.58-.94-1.3-1.45-1.79a14.52,14.52,0,0,1-1.43-1.92l-1.6-2.31c-.53-.77-1.11-1.3-1.66-2s-1.22-1.16-1.81-1.86c-.43,0-.79-.74-1.22-.81-.73-.11-1.47-.16-2.2-.25-.24,0-.45.17-.66.41l-3.17,3.51a3.72,3.72,0,0,1-.75.74,3.63,3.63,0,0,0-.87.81c-1.15,1.31-2.32,2.53-3.45,4a35,35,0,0,1-2.42,2.77,9.44,9.44,0,0,1-2,2.06c-.11.06-.2.27-.31.41s-.26.45-.4.52c-.54.24-1,1-1.53,1.3a10.22,10.22,0,0,0-1.28,1.33c-.42.43-.87.73-1.29,1.2a6.88,6.88,0,0,1-1.86,1.52.83.83,0,0,1-.9.36,2.53,2.53,0,0,0-.46-.06c-.46,0-.85-.44-1.15-1.21-.54-1.39-1.17-2.5-1.68-4a39.85,39.85,0,0,0-2.08-4.58,8,8,0,0,0-.68-1.13,12.66,12.66,0,0,0-2-2.29,1.87,1.87,0,0,0-1.23-.66c-.31,0-.63-.17-.92,0s-.61.26-.9.42a4.08,4.08,0,0,0-.75.75,17.71,17.71,0,0,0-2.24,3c-.32.53-.66,1-1,1.48-.32,0-.59.46-.89.61a5.19,5.19,0,0,0-1,.7.79.79,0,0,1-.56.26c-.51-.07-1,.63-1.47.6a11.59,11.59,0,0,0-2.29,2c-.21.26-.42.47-.63.71-.49.56-1,.31-1.48.09a.74.74,0,0,1-.2-.3,13.86,13.86,0,0,0-1.57-2.42.79.79,0,0,0-.55-.39,3.83,3.83,0,0,0-.58-.07,1.61,1.61,0,0,0-.69,0,3.13,3.13,0,0,0-.78.54,3.17,3.17,0,0,0-1,1.46,12.92,12.92,0,0,0-.45,1.33,9.51,9.51,0,0,1-1,2.41.06.06,0,0,1-.1,0,8.06,8.06,0,0,1-.45-1.31c-.35-1.74-.86-3.21-1.25-4.88a7.7,7.7,0,0,0-.53-1.52,13.06,13.06,0,0,0-.94-1.68,1.78,1.78,0,0,0-.75-.67,3.7,3.7,0,0,0-1-.12c-.39.49-.83.36-1.23.68s-.82.57-1.22.87a4,4,0,0,1-1.22.8,8,8,0,0,1-1.38-.07c-.37,0-.66-.59-1-.68a1.39,1.39,0,0,1-.65-.58,13.65,13.65,0,0,1-1-1.54,30.56,30.56,0,0,1-1.63-3.24c-.52-.81-1-1.88-1.5-2.7a30.65,30.65,0,0,0-2-2.83c-.51-.66-1.05-1.21-1.64-1.22a1,1,0,0,1-.79-.41c-.49-.57-.9-.22-1.22.86,0,.07,0,.17-.06.31a5.93,5.93,0,0,0,.28.87c.33.65.68,1.27,1,1.86a3.4,3.4,0,0,0,.51.63c.54.51,1,1.25,1.58,1.78a8.38,8.38,0,0,1,.85,1.47c.71,1.18,1.33,2.62,2,4a11.36,11.36,0,0,0,1,2.26,31.11,31.11,0,0,0,1.79,2.64c.28.42.61.32.88.67a1.19,1.19,0,0,0,.89.52l1.62.18c.15,0,.33.09.46-.06.29-.34.6-.31.9-.44a5.68,5.68,0,0,0,.88-.65l1.54-1.14c.2-.14.38-.11.56.14a3,3,0,0,1,.49.75,21.41,21.41,0,0,1,1.11,3.34c.27,1.27.58,2.49.88,3.73a6,6,0,0,0,1.57,2.85s.07,0,.11.05c.55.19,1.08,0,1.54-.8.16-.29.33-.5.49-.77a7,7,0,0,0,.92-2.18,9.93,9.93,0,0,1,.62-1.71c.18-.45.4-.54.64-.51a.83.83,0,0,1,.66.45,11.61,11.61,0,0,1,.66,1.17,6.63,6.63,0,0,0,1.35,1.59c.61.09,1.23.49,1.83-.23a5.33,5.33,0,0,0,1.74-1.46c.24-.29.51-.46.74-.79s.6-.35.88-.69.45-.2.68-.21c.08,0,.16,0,.23,0a1.67,1.67,0,0,1,.9-.48,3.1,3.1,0,0,0,.78-.5,12.59,12.59,0,0,0,1.32-1,9.9,9.9,0,0,0,1.78-2c.53-.78,1-1.61,1.57-2.42.41-.62.84-1,1.33-.81s.77,0,1.12.55a7.17,7.17,0,0,1,1.64,2,13,13,0,0,1,1.44,2.89,3.62,3.62,0,0,0,.34.78,6.48,6.48,0,0,1,.69,1.54l1.11,3c.16.43.34.8.51,1.17a13.94,13.94,0,0,0,1.88,2.85c.25.32.52.37.78.07s.8-.66,1.19-1a9.82,9.82,0,0,1,1.31-1.09,6.61,6.61,0,0,0,1.19-1.09,7.18,7.18,0,0,1,1.06-1.12,6.67,6.67,0,0,0,1.08-1c.39-.4.8-.72,1.19-1.09a13.89,13.89,0,0,1,1.94-1.85c1.09-1.21,2.19-2.4,3.27-3.63a7.5,7.5,0,0,0,.92-1.25,1.75,1.75,0,0,1,.63-.68,2.27,2.27,0,0,0,.63-.67,22.32,22.32,0,0,1,2.2-2.53c.35-.11.66-.52,1-.89a22.72,22.72,0,0,1,2.57-2.54,26.59,26.59,0,0,1,2.31-1.69.31.31,0,0,1,.35.06c.14.1.28.37.42.43.7.25,1.3,1.13,1.95,1.71s.94,1.28,1.45,1.78a14.5,14.5,0,0,1,1.42,1.92c.24.33.46.72.7,1a27,27,0,0,0,2.37,3,4.9,4.9,0,0,1,.81,1.09c.26.44.57.54.85.87s.7.77,1.05,1.18c.66.76,1.32,1.56,2,2.22a10.48,10.48,0,0,1,1.08,1c.48.62,1,.74,1.44.21.07-.07.15-.06.23-.09a3.55,3.55,0,0,0,1.85-2.14,3.81,3.81,0,0,1,2-2.11c.55.16,1-.61,1.58-.59.25-.35.53-.24.79-.4s.58-.53.9-.46c.35-.39.74-.4,1.12-.58.3-.57.69-.15,1-.55s.69-.2,1-.25c.08,0,.17,0,.23,0,.44-.58.91-.33,1.37-.32s.85.07,1.27.09a.55.55,0,0,0,.46-.09.89.89,0,0,1,.79-.24q.81.08,1.62.12c.2,0,.41.08.57-.1a1.06,1.06,0,0,1,.92-.28,4,4,0,0,1,.69,0c.24,0,.44-.45.67-.41.44.06.81-.55,1.23-.65a19.38,19.38,0,0,1,2.74-2.21c.28-.23.51-.14.77.2a6.34,6.34,0,0,1,.77,1.71,5.1,5.1,0,0,1,.25,1.28c.15,1.64.66,2.32,1.24,2.7a1.28,1.28,0,0,0,.8.15c.33,0,.57.65.89.65a.72.72,0,0,1,.34.09.68.68,0,0,1,.33.25,1,1,0,0,0,.66.44.75.75,0,0,1,.45.26.94.94,0,0,0,.78.42c.73.06,1.46.35,2.18-.22.25-.2.54.06.8-.24s.6-.31.88-.67.39-.17.54-.43a10.44,10.44,0,0,1,1.23-1.58c.38-.5,1.8-2.68,2.17-3.31s.7-1.18,1.06-1.72.81-.59,1.2-1.06c.27,0,.53,0,.8-.06.6,0,1.14.32,1.64,1.16.36.58.76,1,1.11,1.57a16.52,16.52,0,0,0,1.15,1.92,1.9,1.9,0,0,1,.18.35c.25.61.51,1.16.79,1.69a19.88,19.88,0,0,1,.82,2,7.77,7.77,0,0,0,.5,1.2,7.68,7.68,0,0,1,.77,1.75,8.12,8.12,0,0,0,1.09,2.11l.72,1,1.31,1a2.64,2.64,0,0,0,.46-.13c.15-.06.3-.25.44-.24.29,0,.54-.21.77-.53a23.79,23.79,0,0,0,2.2-3.7,16.46,16.46,0,0,0,1.36-3.55,4.45,4.45,0,0,1,.24-.62,10,10,0,0,0,.68-2c.53-1.27.89-2.92,1.47-4.08a2.76,2.76,0,0,0,.25-.62,17.61,17.61,0,0,1,1.09-3c.22-.55.44-1.09.65-1.67A4,4,0,0,0,698.7,1428.05Z" transform="translate(-548.48 -1332.8)"></path></svg>